<svg xmlns="http://www.w3.org/2000/svg" viewBox="0 0 180 180" width="180" height="180">
  <!-- Background with iOS rounded corners -->
  <rect width="180" height="180" fill="#0f172a" rx="36"/>
  
  <!-- Dumbbell design scaled for 180x180 -->
  <!-- Left weight plate -->
  <rect x="20" y="50" width="35" height="80" rx="6" fill="#06b6d4"/>
  <rect x="25" y="55" width="25" height="70" rx="4" fill="#67e8f9"/>
  <rect x="30" y="60" width="15" height="60" rx="2" fill="#a5f3fc"/>
  
  <!-- Right weight plate -->
  <rect x="125" y="50" width="35" height="80" rx="6" fill="#06b6d4"/>
  <rect x="130" y="55" width="25" height="70" rx="4" fill="#67e8f9"/>
  <rect x="135" y="60" width="15" height="60" rx="2" fill="#a5f3fc"/>
  
  <!-- Handle bar -->
  <rect x="55" y="75" width="70" height="30" rx="15" fill="#94a3b8"/>
  <rect x="55" y="78" width="70" height="24" rx="12" fill="#cbd5e1"/>
  <rect x="55" y="81" width="70" height="18" rx="9" fill="#e2e8f0"/>
  
  <!-- Handle grip lines -->
  <line x1="70" y1="85" x2="70" y2="95" stroke="#64748b" stroke-width="2"/>
  <line x1="78" y1="85" x2="78" y2="95" stroke="#64748b" stroke-width="2"/>
  <line x1="86" y1="85" x2="86" y2="95" stroke="#64748b" stroke-width="2"/>
  <line x1="94" y1="85" x2="94" y2="95" stroke="#64748b" stroke-width="2"/>
  <line x1="102" y1="85" x2="102" y2="95" stroke="#64748b" stroke-width="2"/>
  <line x1="110" y1="85" x2="110" y2="95" stroke="#64748b" stroke-width="2"/>
  
  <!-- Shine effects -->
  <ellipse cx="35" cy="70" rx="6" ry="15" fill="rgba(255,255,255,0.4)"/>
  <ellipse cx="145" cy="70" rx="6" ry="15" fill="rgba(255,255,255,0.4)"/>
  <ellipse cx="90" cy="85" rx="25" ry="4" fill="rgba(255,255,255,0.2)"/>
  
  <!-- Small weight indicator dots -->
  <circle cx="37" cy="90" r="2" fill="#0891b2"/>
  <circle cx="143" cy="90" r="2" fill="#0891b2"/>
</svg>